. 
 
http://www.torrenting.com          :     Once & For all ;)


               www . Torrenting . Com 

(((((((((((((= Enjoy No RAR releases =))))))))))))))))))))


...................................NFO:....................................

.








































          
          
              
              
                    
                    
                    
                    
Lady.And.The.Tramp.1955.BRRiP.XviD.AC3-SiC

Poster:
[img]http://img51.imageshack.us/img51/8439/ladyandthetramp.png[/img]

IMDB Link: 
http://www.imdb.com/title/tt0048280

Description:
Lady, a golden cocker spaniel, meets up with a mongrel dog who calls himself the Tramp. He is obviously from the wrong side of town, but happenings at Lady's home make her decide to travel with him for a while.

General:
Complete name                            : Lady.And.The.Tramp.1955.BRRiP.XviD.AC3-SiC.avi
Format                                   : AVI
Format/Info                              : Audio Video Interleave
File size                                : 755 MiB
Duration                                 : 1h 16mn
Overall bit rate                         : 1 382 Kbps

Video
ID                                       : 0
Format                                   : MPEG-4 Visual
Format profile                           : Advanced Simple@L5
Format settings, BVOP                    : 3
Format settings, QPel                    : No
Format settings, GMC                     : No warppoints
Format settings, Matrix                  : Default (H.263)
Codec ID                                 : XVID
Codec ID/Hint                            : XviD
Duration                                 : 1h 16mn
Bit rate                                 : 990 Kbps
Width                                    : 720 pixels
Height                                   : 272 pixels
Display aspect ratio                     : 2.647
Frame rate                               : 23.976 fps
Color space                              : YUV
Chroma subsampling                       : 4:2:0
Bit depth                                : 8 bits
Scan type                                : Progressive
Compression mode                         : Lossy
Bits/(Pixel*Frame)                       : 0.211
Stream size                              : 541 MiB (72%)
Writing library                          : XviD 1.2.1 (UTC 2008-12-04)

Audio
ID                                       : 1
Format                                   : AC-3
Format/Info                              : Audio Coding 3
Mode extension                           : CM (complete main)
Codec ID                                 : 2000
Duration                                 : 1h 16mn
Bit rate mode                            : Constant
Bit rate                                 : 384 Kbps
Channel(s)                               : 6 channels
Channel positions                        : Front: L C R, Side: L R, LFE
Sampling rate                            : 48.0 KHz
Bit depth                                : 16 bits
Compression mode                         : Lossy
Stream size                              : 210 MiB (28%)
Alignment                                : Aligned on interleaves
Interleave, duration                     : 64 ms (1.53 video frames)
Interleave, preload duration             : 192 ms
Title                                    : 6ch 5.1 384 kbps

Screenshots:
[IMG]http://img525.imageshack.us/img525/2940/vlcsnap2012012707h09m17.png[/IMG]
[IMG]http://img190.imageshack.us/img190/1038/vlcsnap2012012707h09m22.png[/IMG]
[IMG]http://img715.imageshack.us/img715/182/vlcsnap2012012707h09m39.png[/IMG]
[IMG]http://img824.imageshack.us/img824/884/vlcsnap2012012707h09m52.png[/IMG]
[IMG]http://img823.imageshack.us/img823/7921/vlcsnap2012012707h09m25.png[/IMG]

Note:  Stripped audio from source, converted from DTS to ac3, video ran a few filters, came together real nice.  :)

Source:  lady.and.the.tramp.1955.720p.bluray.x264-amiable  -  Many THANKS :)

Enjoy!

Respects to T00NG0D, ELEKTRI4KA, PA, YeFsTe, MrRep and everyone in the struggle...